HIERARCHY
ROOT Hips
{
    OFFSET 0.0 0.0 0.0
    CHANNELS 6 Xposition Yposition Zposition Zrotation Xrotation Yrotation
    JOINT Spine
    {
        OFFSET 0.0 24.79033338125202 0.0
        CHANNELS 3 Zrotation Xrotation Yrotation
        JOINT Chest
        {
            OFFSET 0.0 24.79033338125202 0.0
            CHANNELS 3 Zrotation Xrotation Yrotation
            JOINT Head
            {
                OFFSET 0.0 13.85542425785541 0.0
                CHANNELS 3 Zrotation Xrotation Yrotation
            }
            JOINT LeftUpperArm
            {
                OFFSET 16.48828220134795 0.0 0.0
                CHANNELS 3 Zrotation Xrotation Yrotation
                JOINT LeftLowerArm
                {
                    OFFSET 25.16881391155124 0.0 0.0
                    CHANNELS 3 Zrotation Xrotation Yrotation
                    JOINT LeftHand
                    {
                        OFFSET 21.840048774868148 0.0 0.0
                        CHANNELS 3 Zrotation Xrotation Yrotation
                    }
                    End Site
                    {
                    OFFSET 7.9399707330596305 0.0 0.0
                    }
                }
            }
            JOINT RightUpperArm
            {
                OFFSET -16.48828220134795 0.0 0.0
                CHANNELS 3 Zrotation Xrotation Yrotation
                JOINT RightLowerArm
                {
                    OFFSET 25.16881391155124 0.0 0.0
                    CHANNELS 3 Zrotation Xrotation Yrotation
                    JOINT RightHand
                    {
                        OFFSET 21.840048774868148 0.0 0.0
                        CHANNELS 3 Zrotation Xrotation Yrotation
                    }
                    End Site
                    {
                    OFFSET 7.9399707330596305 0.0 0.0
                    }
                }
            }
        }
    }
    JOINT LeftUpperLeg
    {
        OFFSET 9.26531493572243 0.0 0.0
        CHANNELS 3 Zrotation Xrotation Yrotation
        JOINT LeftLowerLeg
        {
            OFFSET 38.285885886504545 0.0 0.0
            CHANNELS 3 Zrotation Xrotation Yrotation
            JOINT LeftFootAnkle
            {
                OFFSET 40.95230004852758 0.0 0.0
                CHANNELS 3 Zrotation Xrotation Yrotation
                End Site
                {
                OFFSET 10.837506415593896 0.0 0.0
                }
            }
        }
    }
    JOINT RightUpperLeg
    {
        OFFSET -9.26531493572243 0.0 0.0
        CHANNELS 3 Zrotation Xrotation Yrotation
        JOINT RightLowerLeg
        {
            OFFSET 38.285885886504545 0.0 0.0
            CHANNELS 3 Zrotation Xrotation Yrotation
            JOINT RightFootAnkle
            {
                OFFSET 40.95230004852758 0.0 0.0
                CHANNELS 3 Zrotation Xrotation Yrotation
                End Site
                {
                OFFSET 10.837506415593896 0.0 0.0
                }
            }
        }
    }
}
MOTION
Frames: 6
Frame Time: 0.03333333333333333
-0.11407458422802735 -0.09635941481072186 0.14854187167883018 -4.2545211531758484 7.684176491746251 -0.14674857828749244 -3.4310605298112606 0.6103578548218804 -10.406040022515048 -3.2627421533731185 1.2270449564402628 -10.426125480372287 11.426470270817426 35.106895284744745 19.620361358666397 99.06842095076104 -60.991620271690934 165.26423057469287 0.6465946012212979 -2.737377989884713 13.295626419482945 -54.11886299403455 38.187962528972704 47.81411657903481 92.9747959557902 6.763564872015255 -172.4506578380486 122.18361836283914 -55.30003057588852 117.35721278879664 -176.31739733435506 -43.95587469763829 -158.60527716057356 139.64348849190202 -88.182804948813 -137.92442323451107 -149.79987966014733 -52.9758756942777 180.0 -116.44920799698632 27.019101483113083 180.0 28.549312659014447 -80.78150933755934 114.13311067737821 -161.5143552989764 -35.68992000685962 180.0 -88.61102612653536 -40.69793527299089 180.0
-0.1128928870070724 -0.09717516866327973 0.14275263805947816 -4.219480546969171 8.194876049062517 -0.5985213638473311 -3.485186839263177 0.5838290358920913 -10.453249971845539 -3.3198846689511012 1.21309681959859 -10.471564304591682 9.683665470092976 36.30405036607532 21.84360405927726 98.60010520418882 -60.56596194911022 165.62094745941926 0.44715616940338915 -2.172903651245817 11.631355795885035 -49.789844657898755 39.33402362947472 43.36845316787849 92.03703282481585 6.243647257719137 -171.89735334832028 136.3211245069865 -50.36852877015834 128.88703266508557 176.6854780404925 -53.893996356630744 -166.78722051060123 149.8235869002557 -86.65439585029422 -127.39475526407033 -155.24980128084712 -47.40820462984288 180.0 -115.46748360364093 27.67304862872131 180.0 66.85074563278404 -71.16342365044295 149.64155216606352 -167.4994080726817 -48.800661584261746 180.0 -87.7185448521461 -36.10469026068851 180.0
-0.1086310561862846 -0.09938599121992893 0.13616122726218421 -4.014098214900131 8.614955296142513 -2.607235331207417 -3.8194332480310926 0.5291442689845648 -10.10398713689023 -3.665971515465371 1.1975694186227317 -10.118790708326912 9.52648403047308 35.50701943036966 22.907567714094395 94.70196808158485 -67.45001418984307 161.84634154228993 1.734533524597386 -9.14398700877602 10.788766409599207 -47.68403348726665 38.49707199285955 39.65197913823336 92.4836727835366 5.037341861325949 -171.56849035963168 146.61743565062503 -44.568865962280604 136.80261177309993 170.6731326594639 -60.1358529878804 -175.2525379888958 143.51025000656605 -84.47499483738024 -133.5728578699264 -156.5353621295464 -46.27748493967661 180.0 -113.56007397539248 27.702868849249676 180.0 80.174531007922 -60.030538175518906 161.06381616005172 -169.11146429290324 -61.627963458123325 180.0 -85.69654091183996 -37.47709915443289 180.0
-0.10477999803422139 -0.1047495265572145 0.13012205041094915 -3.9300578467982126 7.644007632170178 -4.651648840806493 -4.102210235502502 0.510057627853265 -10.193501952091465 -3.9457926216755546 1.2347907475896158 -10.205989883857386 8.822750925923582 36.127420337533025 23.671147405042962 91.45032139079153 -67.26410472922159 159.05563365736498 1.1477541484686529 -6.599497250353207 9.888652679173315 -43.3734840903797 36.922054561909256 33.46819301733912 91.77664576000592 5.595538469649328 -171.7078662654941 161.73587260307377 -27.612263939900426 144.5473192173914 131.02384717543615 -77.14112787318076 143.16908761494628 131.59914407202433 -83.83320708961939 -145.45353239950467 -156.7137222671798 -45.29476404826412 180.0 -111.17675005300171 27.423250200999785 180.0 82.34200602773676 -55.261467181494915 162.62239142160337 -169.16258856296503 -65.30672587614339 180.0 -86.32496238203449 -39.56965227545154 180.0
-0.10345247343313654 -0.10949362520815531 0.12814178272218088 -3.9734805035284477 6.581585074915172 -5.652046565513821 -4.365683324126599 0.5431587660979779 -10.421867020713977 -4.193713115207928 1.3320204856423203 -10.435487588118558 10.139671793462496 35.68103269001144 22.139809598261806 85.59777675082957 -71.06597870595101 153.37705142390422 1.6929684489995682 -9.93343882592827 9.722532660183045 -41.74251235336442 36.11739428681473 30.731808004944156 92.0011222909145 3.150972318960943 -170.12800546480818 175.31144140120378 -7.123077250572004 146.51948897055226 51.17969579956235 -69.57236242266592 59.75053654116846 124.47279922480699 -85.41906799098234 -152.40838666003452 -157.9251813123746 -43.087250714635736 180.0 -107.21624658581544 26.360315510514052 180.0 82.37042271242063 -53.189403610242195 162.1838796519944 -169.5871106554674 -68.09919065685929 180.0 -86.10482301816896 -41.247202524026825 180.0
-0.09975854225703841 -0.11370360793384682 0.12458780485420365 -4.0952988948159135 5.162692968362383 -5.565341179366577 -4.928416097105433 0.5332115205709184 -8.69671528263379 -4.7892902585670845 1.2827663074603968 -8.712321388061014 15.735894044867281 31.821327107475813 16.91462162804815 63.65913697254767 -81.93465114243403 130.93592084645883 2.831105757994697 -17.620151578418202 9.27834028650323 -39.40236569507288 34.249117323093444 29.191363607367663 94.38712790059887 6.21158396470457 -159.20071652458063 147.59799322117237 -31.405508531291588 129.38755450170837 111.84408115015187 -54.94520668022209 140.69891204172222 125.11444475532313 -88.48655608799028 -151.18455137410342 -156.84644484213877 -40.83921884771028 180.0 -105.52375535990329 26.53170146316615 180.0 80.43012205325206 -55.655831919283536 160.3377134455074 -168.97661517851395 -64.50025624319723 180.0 -86.63022595211197 -42.07086554021262 180.0
